<svg width="48" height="48" viewBox="0 0 48 48" fill="none" xmlns="http://www.w3.org/2000/svg">
<path fill-rule="evenodd" clip-rule="evenodd" d="M1.12587 5.39026C0 7.55764 0 10.4051 0 16.1V31.9C0 37.5949 0 40.4424 1.12587 42.6097C2.07462 44.4362 3.56382 45.9254 5.39026 46.8741C7.55764 48 10.4051 48 16.1 48H31.9C37.5949 48 40.4424 48 42.6097 46.8741C44.4362 45.9254 45.9254 44.4362 46.8741 42.6097C48 40.4424 48 37.5949 48 31.9V16.1C48 10.4051 48 7.55764 46.8741 5.39026C45.9254 3.56382 44.4362 2.07462 42.6097 1.12587C40.4424 0 37.5949 0 31.9 0H16.1C10.4051 0 7.55764 0 5.39026 1.12587C3.56382 2.07462 2.07462 3.56382 1.12587 5.39026ZM37.3384 19.0515C37.3384 18.7517 37.3345 18.452 37.3229 18.1522C38.5645 17.1847 39.6395 15.972 40.4935 14.5956C39.3552 15.1407 38.1278 15.5084 36.841 15.6719C38.1562 14.827 39.1627 13.4782 39.6394 11.8702C38.4095 12.6605 37.0503 13.2329 35.5994 13.5327C34.4405 12.1972 32.7893 11.3658 30.9612 11.3658C27.4496 11.3658 24.6033 14.4456 24.6033 18.2477C24.6033 18.7792 24.6589 19.3105 24.7675 19.8147C19.4845 19.5285 14.7985 16.7894 11.6641 12.6194C11.1137 13.6415 10.8011 14.8271 10.8011 16.0808C10.8011 18.4656 11.9238 20.5778 13.6318 21.8179C12.5892 21.777 11.6073 21.4638 10.7494 20.9595V21.0414C10.7494 24.3801 12.9419 27.16 15.8527 27.7869C15.3153 27.9504 14.7546 28.0321 14.177 28.0321C13.7675 28.0321 13.367 27.9911 12.9781 27.9093C13.7882 30.6348 16.137 32.638 18.9186 32.6789C16.7429 34.5322 14.0001 35.6363 11.022 35.6363C10.5091 35.6363 10.004 35.5953 9.50655 35.5408C12.3205 37.4895 15.6603 38.6343 19.252 38.6343C30.9444 38.6343 37.3384 28.141 37.3384 19.0515Z" fill="black"/>
</svg>
