<svg width="48" height="48" viewBox="0 0 48 48" fill="none" xmlns="http://www.w3.org/2000/svg">
<g clip-path="url(#clip0_475_146)">
<path fill-rule="evenodd" clip-rule="evenodd" d="M1.15327 5.39026C0.0274048 7.55764 0.0274048 10.4051 0.0274048 16.1V31.9C0.0274048 37.5949 0.0274048 40.4424 1.15327 42.6097C2.10203 44.4362 3.59123 45.9254 5.41766 46.8741C7.58504 48 10.4325 48 16.1274 48H31.9274C37.6223 48 40.4698 48 42.6371 46.8741C44.4636 45.9254 45.9528 44.4362 46.9015 42.6097C48.0274 40.4424 48.0274 37.5949 48.0274 31.9V16.1C48.0274 10.4051 48.0274 7.55764 46.9015 5.39026C45.9528 3.56382 44.4636 2.07462 42.6371 1.12587C40.4698 0 37.6223 0 31.9274 0H16.1274C10.4325 0 7.58504 0 5.41766 1.12587C3.59123 2.07462 2.10203 3.56382 1.15327 5.39026ZM16.8039 6.65093C18.6656 6.5662 19.2605 6.54547 24.0007 6.54547H23.9953C28.7369 6.54547 29.3297 6.5662 31.1914 6.65093C33.0495 6.73602 34.3186 7.0302 35.4313 7.46183C36.5803 7.90729 37.5512 8.50365 38.5221 9.47456C39.493 10.4447 40.0893 11.4186 40.5366 12.5666C40.9657 13.6764 41.2602 14.9447 41.3475 16.8029C41.4311 18.6647 41.4529 19.2597 41.4529 24C41.4529 28.7404 41.4311 29.3338 41.3475 31.1957C41.2602 33.0531 40.9657 34.3218 40.5366 35.432C40.0893 36.5797 39.493 37.5535 38.5221 38.5237C37.5523 39.4946 36.58 40.0924 35.4324 40.5382C34.3219 40.9698 33.0521 41.264 31.194 41.3491C29.3322 41.4338 28.7391 41.4546 23.9985 41.4546C19.2587 41.4546 18.6642 41.4338 16.8024 41.3491C14.9446 41.264 13.676 40.9698 12.5654 40.5382C11.4182 40.0924 10.4444 39.4946 9.47462 38.5237C8.50411 37.5535 7.90776 36.5797 7.46159 35.4317C7.03033 34.3218 6.73616 33.0535 6.65071 31.1953C6.56635 29.3335 6.54526 28.7404 6.54526 24C6.54526 19.2597 6.56707 18.6644 6.65035 16.8026C6.73398 14.9451 7.02852 13.6764 7.46123 12.5662C7.90849 11.4186 8.50483 10.4447 9.47571 9.47456C10.4459 8.50402 11.4197 7.90765 12.5676 7.46183C13.6774 7.0302 14.9457 6.73602 16.8039 6.65093ZM23.419 9.69075C23.066 9.6906 22.739 9.69045 22.435 9.69093V9.68656C19.182 9.6902 18.558 9.71202 16.9479 9.78474C15.2461 9.86293 14.3221 10.1466 13.7069 10.3866C12.8923 10.7037 12.3105 11.0818 11.6996 11.6927C11.0888 12.3037 10.7099 12.8855 10.3935 13.7C10.1546 14.3153 9.87025 15.2389 9.79243 16.9407C9.7088 18.7807 9.69207 19.3306 9.69207 23.9917C9.69207 28.6527 9.7088 29.2055 9.79243 31.0455C9.86988 32.7473 10.1546 33.6709 10.3935 34.2855C10.7106 35.1004 11.0888 35.6807 11.6996 36.2917C12.3105 36.9026 12.8923 37.2807 13.7069 37.5971C14.3225 37.836 15.2461 38.1204 16.9479 38.1989C18.7878 38.2826 19.3401 38.3007 24.0007 38.3007C28.6609 38.3007 29.2137 38.2826 31.0536 38.1989C32.7554 38.1211 33.6797 37.8375 34.2942 37.5975C35.1091 37.2811 35.6891 36.9029 36.3 36.292C36.9109 35.6815 37.2898 35.1015 37.6061 34.2869C37.845 33.6724 38.1294 32.7487 38.2072 31.0469C38.2908 29.2069 38.309 28.6542 38.309 23.996C38.309 19.3378 38.2908 18.7851 38.2072 16.9451C38.1298 15.2433 37.845 14.3197 37.6061 13.7051C37.2891 12.8906 36.9109 12.3087 36.3 11.6978C35.6895 11.0869 35.1088 10.7087 34.2942 10.3924C33.679 10.1535 32.7554 9.86911 31.0536 9.79129C29.2133 9.70765 28.6609 9.69093 24.0007 9.69093C23.7993 9.69093 23.6055 9.69084 23.419 9.69075ZM31.2231 14.6829C31.2231 13.5262 32.1612 12.5891 33.3175 12.5891V12.5884C34.4739 12.5884 35.412 13.5266 35.412 14.6829C35.412 15.8393 34.4739 16.7775 33.3175 16.7775C32.1612 16.7775 31.2231 15.8393 31.2231 14.6829ZM15.0374 24C15.0374 19.05 19.0505 15.0366 24.0004 15.0364C28.9504 15.0364 32.9626 19.0498 32.9626 24C32.9626 28.9502 28.9508 32.9618 24.0007 32.9618C19.0507 32.9618 15.0374 28.9502 15.0374 24ZM29.8187 24C29.8187 20.7866 27.2137 18.1818 24.0007 18.1818C20.7874 18.1818 18.1827 20.7866 18.1827 24C18.1827 27.2131 20.7874 29.8182 24.0007 29.8182C27.2137 29.8182 29.8187 27.2131 29.8187 24Z" fill="url(#paint0_radial_475_146)"/>
<path fill-rule="evenodd" clip-rule="evenodd" d="M1.15327 5.39026C0.0274048 7.55764 0.0274048 10.4051 0.0274048 16.1V31.9C0.0274048 37.5949 0.0274048 40.4424 1.15327 42.6097C2.10203 44.4362 3.59123 45.9254 5.41766 46.8741C7.58504 48 10.4325 48 16.1274 48H31.9274C37.6223 48 40.4698 48 42.6371 46.8741C44.4636 45.9254 45.9528 44.4362 46.9015 42.6097C48.0274 40.4424 48.0274 37.5949 48.0274 31.9V16.1C48.0274 10.4051 48.0274 7.55764 46.9015 5.39026C45.9528 3.56382 44.4636 2.07462 42.6371 1.12587C40.4698 0 37.6223 0 31.9274 0H16.1274C10.4325 0 7.58504 0 5.41766 1.12587C3.59123 2.07462 2.10203 3.56382 1.15327 5.39026ZM16.8039 6.65093C18.6656 6.5662 19.2605 6.54547 24.0007 6.54547H23.9953C28.7369 6.54547 29.3297 6.5662 31.1914 6.65093C33.0495 6.73602 34.3186 7.0302 35.4313 7.46183C36.5803 7.90729 37.5512 8.50365 38.5221 9.47456C39.493 10.4447 40.0893 11.4186 40.5366 12.5666C40.9657 13.6764 41.2602 14.9447 41.3475 16.8029C41.4311 18.6647 41.4529 19.2597 41.4529 24C41.4529 28.7404 41.4311 29.3338 41.3475 31.1957C41.2602 33.0531 40.9657 34.3218 40.5366 35.432C40.0893 36.5797 39.493 37.5535 38.5221 38.5237C37.5523 39.4946 36.58 40.0924 35.4324 40.5382C34.3219 40.9698 33.0521 41.264 31.194 41.3491C29.3322 41.4338 28.7391 41.4546 23.9985 41.4546C19.2587 41.4546 18.6642 41.4338 16.8024 41.3491C14.9446 41.264 13.676 40.9698 12.5654 40.5382C11.4182 40.0924 10.4444 39.4946 9.47462 38.5237C8.50411 37.5535 7.90776 36.5797 7.46159 35.4317C7.03033 34.3218 6.73616 33.0535 6.65071 31.1953C6.56635 29.3335 6.54526 28.7404 6.54526 24C6.54526 19.2597 6.56707 18.6644 6.65035 16.8026C6.73398 14.9451 7.02852 13.6764 7.46123 12.5662C7.90849 11.4186 8.50483 10.4447 9.47571 9.47456C10.4459 8.50402 11.4197 7.90765 12.5676 7.46183C13.6774 7.0302 14.9457 6.73602 16.8039 6.65093ZM23.419 9.69075C23.066 9.6906 22.739 9.69045 22.435 9.69093V9.68656C19.182 9.6902 18.558 9.71202 16.9479 9.78474C15.2461 9.86293 14.3221 10.1466 13.7069 10.3866C12.8923 10.7037 12.3105 11.0818 11.6996 11.6927C11.0888 12.3037 10.7099 12.8855 10.3935 13.7C10.1546 14.3153 9.87025 15.2389 9.79243 16.9407C9.7088 18.7807 9.69207 19.3306 9.69207 23.9917C9.69207 28.6527 9.7088 29.2055 9.79243 31.0455C9.86988 32.7473 10.1546 33.6709 10.3935 34.2855C10.7106 35.1004 11.0888 35.6807 11.6996 36.2917C12.3105 36.9026 12.8923 37.2807 13.7069 37.5971C14.3225 37.836 15.2461 38.1204 16.9479 38.1989C18.7878 38.2826 19.3401 38.3007 24.0007 38.3007C28.6609 38.3007 29.2137 38.2826 31.0536 38.1989C32.7554 38.1211 33.6797 37.8375 34.2942 37.5975C35.1091 37.2811 35.6891 36.9029 36.3 36.292C36.9109 35.6815 37.2898 35.1015 37.6061 34.2869C37.845 33.6724 38.1294 32.7487 38.2072 31.0469C38.2908 29.2069 38.309 28.6542 38.309 23.996C38.309 19.3378 38.2908 18.7851 38.2072 16.9451C38.1298 15.2433 37.845 14.3197 37.6061 13.7051C37.2891 12.8906 36.9109 12.3087 36.3 11.6978C35.6895 11.0869 35.1088 10.7087 34.2942 10.3924C33.679 10.1535 32.7554 9.86911 31.0536 9.79129C29.2133 9.70765 28.6609 9.69093 24.0007 9.69093C23.7993 9.69093 23.6055 9.69084 23.419 9.69075ZM31.2231 14.6829C31.2231 13.5262 32.1612 12.5891 33.3175 12.5891V12.5884C34.4739 12.5884 35.412 13.5266 35.412 14.6829C35.412 15.8393 34.4739 16.7775 33.3175 16.7775C32.1612 16.7775 31.2231 15.8393 31.2231 14.6829ZM15.0374 24C15.0374 19.05 19.0505 15.0366 24.0004 15.0364C28.9504 15.0364 32.9626 19.0498 32.9626 24C32.9626 28.9502 28.9508 32.9618 24.0007 32.9618C19.0507 32.9618 15.0374 28.9502 15.0374 24ZM29.8187 24C29.8187 20.7866 27.2137 18.1818 24.0007 18.1818C20.7874 18.1818 18.1827 20.7866 18.1827 24C18.1827 27.2131 20.7874 29.8182 24.0007 29.8182C27.2137 29.8182 29.8187 27.2131 29.8187 24Z" fill="black"/>
</g>
<defs>
<radialGradient id="paint0_radial_475_146" cx="0" cy="0" r="1" gradientUnits="userSpaceOnUse" gradientTransform="translate(12.7775 51.697) rotate(-90) scale(47.5715 44.2453)">
<stop stop-color="#FFDD55"/>
<stop offset="0.1" stop-color="#FFDD55"/>
<stop offset="0.5" stop-color="#FF543E"/>
<stop offset="1" stop-color="#C837AB"/>
</radialGradient>
<clipPath id="clip0_475_146">
<rect width="48" height="48" fill="white"/>
</clipPath>
</defs>
</svg>
