<svg width="22" height="27" viewBox="0 0 22 27" fill="none" xmlns="http://www.w3.org/2000/svg">
<path d="M21 4.99999C19.6378 4.99997 18.2876 5.25433 17.0187 5.74999C15.2287 2.03749 11.6125 0.192488 11.4475 0.109988C11.3086 0.0404679 11.1554 0.00427246 11 0.00427246C10.8446 0.00427246 10.6914 0.0404679 10.5525 0.109988C10.3862 0.192488 6.77125 2.03749 4.98125 5.74999C3.71243 5.25433 2.3622 4.99997 1 4.99999C0.734784 4.99999 0.48043 5.10535 0.292893 5.29288C0.105357 5.48042 0 5.73477 0 5.99999V16C0 18.9174 1.15893 21.7153 3.22183 23.7782C5.28473 25.8411 8.08262 27 11 27C13.9174 27 16.7153 25.8411 18.7782 23.7782C20.8411 21.7153 22 18.9174 22 16V5.99999C22 5.73477 21.8946 5.48042 21.7071 5.29288C21.5196 5.10535 21.2652 4.99999 21 4.99999ZM10 24.945C7.80086 24.6964 5.77009 23.6472 4.29473 21.9976C2.81937 20.348 2.00257 18.2131 2 16V14.055C4.19914 14.3036 6.22991 15.3527 7.70527 17.0024C9.18063 18.652 9.99743 20.7868 10 23V24.945ZM10 16.6825C9.08293 15.3754 7.89229 14.2836 6.51079 13.483C5.12929 12.6824 3.59005 12.1921 2 12.0462V7.05499C4.19914 7.30362 6.22991 8.35273 7.70527 10.0024C9.18063 11.652 9.99743 13.7868 10 16V16.6825ZM6.76875 6.63874C7.92125 4.23749 10.07 2.72249 11 2.15124C11.93 2.72374 14.0787 4.23874 15.23 6.63874C13.3813 7.78282 11.9102 9.44564 11 11.42C10.0897 9.44531 8.61808 7.7824 6.76875 6.63874ZM20 16C19.9974 18.2131 19.1806 20.348 17.7053 21.9976C16.2299 23.6472 14.1991 24.6964 12 24.945V23C12.0026 20.7868 12.8194 18.652 14.2947 17.0024C15.7701 15.3527 17.8009 14.3036 20 14.055V16ZM20 12.0462C18.4099 12.1921 16.8707 12.6824 15.4892 13.483C14.1077 14.2836 12.9171 15.3754 12 16.6825V16C12.0026 13.7868 12.8194 11.652 14.2947 10.0024C15.7701 8.35273 17.8009 7.30362 20 7.05499V12.0462Z" fill="#1219B4"/>
<path d="M16.5684 5.96714L16.7694 6.38417L17.2007 6.21571C18.4115 5.74271 19.7 5.49997 21 5.49999C21.1326 5.49999 21.2598 5.55267 21.3536 5.64644C21.4473 5.7402 21.5 5.86738 21.5 5.99999V16C21.5 18.7848 20.3938 21.4555 18.4246 23.4246C16.4555 25.3937 13.7848 26.5 11 26.5C8.21523 26.5 5.54451 25.3937 3.57538 23.4246C1.60625 21.4555 0.5 18.7848 0.5 16V5.99999C0.5 5.86738 0.552678 5.7402 0.646447 5.64644C0.740215 5.55267 0.867392 5.49999 1 5.49999C2.29996 5.49997 3.58848 5.74271 4.79932 6.21571L5.23056 6.38417L5.43163 5.96714C7.14569 2.41215 10.6298 0.629797 10.7748 0.557876L10.7762 0.55713C10.8457 0.52237 10.9223 0.504272 11 0.504272C11.0777 0.504272 11.1543 0.52237 11.2238 0.55713L11.2239 0.557202C11.3694 0.629947 14.8544 2.41228 16.5684 5.96714ZM9.94383 25.4418L10.5 25.5047V24.945V23V22.9994C10.4973 20.6635 9.63518 18.4102 8.07796 16.6691C6.52075 14.9279 4.37731 13.8206 2.05617 13.5582L1.5 13.4953V14.055L1.5 16L1.5 16.0006C1.50271 18.3365 2.36482 20.5898 3.92204 22.3309C5.47925 24.0721 7.62269 25.1794 9.94383 25.4418ZM9.59069 16.9697L10.5 18.2657V16.6825V16V15.9994C10.4973 13.6635 9.63518 11.4102 8.07796 9.66905C6.52075 7.92789 4.37731 6.82058 2.05617 6.55815L1.5 6.49527V7.05499V12.0462V12.5025L1.95433 12.5441C3.47211 12.6834 4.94138 13.1513 6.26009 13.9156C7.57879 14.6798 8.71531 15.722 9.59069 16.9697ZM6.31798 6.42239L6.1235 6.82759L6.50577 7.06399C8.27158 8.156 9.67674 9.74381 10.5459 11.6293L11 12.6143L11.4541 11.6293C12.3232 9.7441 13.7279 8.15634 15.4931 7.06391L15.8751 6.82751L15.6808 6.42249C14.4668 3.89154 12.2181 2.31394 11.2621 1.72545L11.0003 1.56427L10.7383 1.72519C9.78182 2.31271 7.53328 3.8903 6.31798 6.42239ZM11.5 24.945V25.5047L12.0562 25.4418C14.3773 25.1794 16.5207 24.0721 18.078 22.3309C19.6352 20.5898 20.4973 18.3365 20.5 16.0006V16V14.055V13.4953L19.9438 13.5582C17.6227 13.8206 15.4793 14.9279 13.922 16.6691C12.3648 18.4102 11.5027 20.6635 11.5 22.9994V23V24.945ZM20.0457 12.5441L20.5 12.5025V12.0462V7.05499V6.49527L19.9438 6.55815C17.6227 6.82058 15.4793 7.92789 13.922 9.66905C12.3648 11.4102 11.5027 13.6635 11.5 15.9994V16V16.6825V18.2657L12.4093 16.9697C13.2847 15.722 14.4212 14.6798 15.7399 13.9156C17.0586 13.1513 18.5279 12.6834 20.0457 12.5441ZM11.4475 0.109988C11.3086 0.0404679 11.1554 0.00427246 11 0.00427246C10.8446 0.00427246 10.6914 0.0404679 10.5525 0.109988C10.3862 0.192488 6.77125 2.03749 4.98125 5.74999L11.4475 0.109988Z" stroke="white" stroke-opacity="0.2"/>
</svg>
